<svg width="752pt" height="752pt" fill="#c70101" viewBox="0 0 752 752" xmlns="http://www.w3.org/2000/svg"><path d="M376 582.01c113.66 0 206.01-92.348 206.01-206.01 0-113.66-92.348-206.01-206.01-206.01-113.66 0-206.01 92.352-206.01 206.01 0 113.66 92.352 206.01 206.01 206.01zM256.18 417.68l111.77-100.87c4.734-4.262 11.367-4.262 15.629 0l111.77 100.87c4.734 4.262 5.21 11.84.945 16.574-2.367 2.367-5.683 3.79-8.996 3.79a12.86 12.86 0 01-8.05-2.84l-103.24-93.77-104.19 93.77c-4.735 4.261-12.313 3.788-16.575-.946-4.261-4.738-3.789-12.316.946-16.578z"/></svg>