<?xml version="1.0" encoding="UTF-8"?>
<svg width="752pt" height="752pt" version="1.1" fill="#c70101" viewBox="0 0 752 752" xmlns="http://www.w3.org/2000/svg">
 <path d="m376 582.01c113.66 0 206.01-92.348 206.01-206.01 0-113.66-92.348-206.01-206.01-206.01-113.66 0-206.01 92.352-206.01 206.01 0 113.66 92.352 206.01 206.01 206.01zm-119.82-164.33 111.77-100.87c4.7344-4.2617 11.367-4.2617 15.629 0l111.77 100.87c4.7344 4.2617 5.2109 11.84 0.94531 16.574-2.3672 2.3672-5.6836 3.7891-8.9961 3.7891-2.8398 0-5.6836-0.94531-8.0508-2.8398l-103.24-93.77-104.19 93.77c-4.7344 4.2617-12.312 3.7891-16.574-0.94531-4.2617-4.7383-3.7891-12.316 0.94531-16.578z"/>
</svg>
